# xmcd CD database file
#
# Track frame offsets:
#	150
#	20268
#	34209
#	52492
#	66567
#	79890
#	93133
#	114724
#	128530
#	140440
#	150835
#	167443
#	184066
#	201571
#	216858
#	233974
#	246744
#	263170
#	276577
#	294636
#
# Disc length: 4188 seconds
#
# Revision: 0
# Processed by: cddbd v1.5.2PL0 Copyright (c) Steve Scherf et al.
# Submitted via: CDex 1.51
#
DISCID=36105a14
DTITLE=Various Artist - Byron Bay Bluesfest 2010 Disk 1
DYEAR=2010
DGENRE=Blues
TTITLE0=Jack Johnson - Losing Key
TTITLE1=The John Butler Trio - One Way Road
TTITLE2=The Fray - You Found Me
TTITLE3=Donavon Frankenreiter - It Don't Matter
TTITLE4=Newton Faulkner - I Need Something
TTITLE5=Matt Costa - Mr Pitiful
TTITLE6=The Swell Season - Low Rising
TTITLE7=Alo - Man Of The World
TTITLE8=Zee Avi - Bitter Heart
TTITLE9=The Snowdroppers - Rosemary
TTITLE10=Lil' Band O'Gold - Ain't No Child No More
TTITLE11=Angus and Julia Stone - Paper Aeroplane
TTITLE12=Gipsy Kings - A Mi Manera (Comme D'Habitude)
TTITLE13=Bebel Gilberto - Nossa Senhora
TTITLE14=Sixto Rodriguez - Sugar Man
TTITLE15=Neil Halstead - Paint A Face
TTITLE16=Colin Hay - Beautiful World
TTITLE17=The Wilson Pickers - Can't Steal My Love
TTITLE18=Warren H Williams - Family
TTITLE19=Jessica Mauboy - Because
EXTD=YEAR: 2010
EXTT0=
EXTT1=
EXTT2=
EXTT3=
EXTT4=
EXTT5=
EXTT6=
EXTT7=
EXTT8=
EXTT9=
EXTT10=
EXTT11=
EXTT12=
EXTT13=
EXTT14=
EXTT15=
EXTT16=
EXTT17=
EXTT18=
EXTT19=
PLAYORDER=
